{"title":"Pure18 Dillion Harper Happy Dillion 1080p","uid":9041415,"size":2375454117,"categoryP":"porn","categoryS":"movie_clips","magnet":"?xt=urn:btih:3a23d5336edde6f7380e06fb67aed5d309953210&amp;dn=Pure18+Dillion+Harper+Happy+Dillion+1080p&amp;tr=udp%3A%2F%2Ftracker.openbittorrent.com%3A80&amp;tr=udp%3A%2F%2Fopen.demonii.com%3A1337&amp;tr=udp%3A%2F%2Ftracker.coppersurfer.tk%3A6969&amp;tr=udp%3A%2F%2Fexodus.desync.com%3A6969","seeders":0,"leechers":1,"uploader":null,"files":2,"time":1381633737,"description":" &lt;a href=&quot;http://www.hostpornpics.net/pornmg/share.php?id=0F14_5259F10D&quot; rel=&quot;nofollow&quot; target=&quot;_NEW&quot;&gt;http://www.hostpornpics.net/pornmg/share.php?id=0F14_5259F10D&lt;/a&gt;\n\n\nPure18 13 10 12 Dillion Harper Happy Dillion 1080p\nDescription:\nDillion had the hots for her piano teacher for a very long time and never had the chance to make a go at him until that one fateful day when her father had to go away for business, and her stepmother decided to tag along. Her parents told her she was old enough and responsible enough to make sure she stuck to a routine and get all of her schoolwork done and keep up with her extracurricular activities. She did just that, but with a just a bit more extra, when it came time for her piano lesson. She flirted and dropped as many hints as possible until she just had to cut to the chase and grab her piano teacher by his cock. He was reluctant at first, but how long could a young guy paying his way through college, teaching piano to bratty rich kids hold out? Once he found out, they were alone in the mansion, and he decided to take a nibble off the young, forbidden fruit.\n\nFormat : MPEG-4\nFormat profile : Base Media / Version 2\nCodec ID : mp42\nFile size : 2.21 GiB\nDuration : 31mn 5s\nOverall bit rate mode : Variable\nOverall bit rate : 10.2 Mbps\nEncoded date : UTC 2013-04-08 23:53:05\nTagged date : UTC 2013-04-08 23:53:05\nWriting library : Apple QuickTime\n\nVideo\nID : 1\nFormat : AVC\nFormat/Info : Advanced Video Codec\nFormat profile : &lt;a class=&quot;__cf_email__&quot; href=&quot;/cdn-cgi/l/email-protection&quot; data-cfemail=&quot;347c5d535c7478001a04&quot;&gt;[email&amp;#160;protected]&lt;/a&gt;&lt;script cf-hash='f9e31' type=&quot;text/javascript&quot;&gt;\n/* &lt;![CDATA[ */!function(){try{var t=&quot;currentScript&quot;in document?document.currentScript:function(){for(var t=document.getElementsByTagName(&quot;script&quot;),e=t.length;e--;)if(t[e].getAttribute(&quot;cf-hash&quot;))return t[e]}();if(t&amp;&amp;t.previousSibling){var e,r,n,i,c=t.previousSibling,a=c.getAttribute(&quot;data-cfemail&quot;);if(a){for(e=&quot;&quot;,r=parseInt(a.substr(0,2),16),n=2;a.length-n;n+=2)i=parseInt(a.substr(n,2),16)^r,e+=String.fromCharCode(i);e=document.createTextNode(e),c.parentNode.replaceChild(e,c)}}}catch(u){}}();/* ]]&gt; */&lt;/script&gt;\nFormat settings, CABAC : No\nFormat settings, ReFrames : 3 frames\nCodec ID : avc1\nCodec ID/Info : Advanced Video Coding\nDuration : 31mn 5s\nSource duration : 31mn 5s\nBit rate mode : Variable\nBit rate : 9 584 Kbps\nMaximum bit rate : 10.0 Mbps\nWidth : 1 920 pixels\nHeight : 1 080 pixels\nDisplay aspect ratio : 16:9\nFrame rate mode : Constant\nFrame rate : 29.970 fps\nStandard : Component\nColor space : YUV\nChroma subsampling : 4:2:0\nBit depth : 8 bits\nScan type : Progressive\nBits/(Pixel*Frame) : 0.154\nStream size : 2.08 GiB (94%)\nSource stream size : 2.17 GiB (98%)\nEncoded date : UTC 2013-04-08 23:53:05\nTagged date : UTC 2013-04-07 23:56:43\n\nAudio\nID : 2\nFormat : AAC\nFormat/Info : Advanced Audio Codec\nFormat profile : LC\nCodec ID : 40\nDuration : 31mn 5s\nBit rate mode : Variable\nBit rate : 192 Kbps\nMaximum bit rate : 201 Kbps\nChannel(s) : 2 channels\nChannel positions : Front: L R\nSampling rate : 48.0 KHz\nCompression mode : Lossy\nStream size : 42.7 MiB (2%)\nEncoded date : UTC 2013-04-08 23:53:05\nTagged date : UTC 2013-04-07 23:56:43","torrent":{"xt":"urn:btih:3a23d5336edde6f7380e06fb67aed5d309953210","amp;dn":"Pure18+Dillion+Harper+Happy+Dillion+1080p","amp;tr":["udp%3A%2F%2Ftracker.openbittorrent.com%3A80","udp%3A%2F%2Fopen.demonii.com%3A1337","udp%3A%2F%2Ftracker.coppersurfer.tk%3A6969","udp%3A%2F%2Fexodus.desync.com%3A6969"],"infoHash":"3a23d5336edde6f7380e06fb67aed5d309953210","infoHashBuffer":{"type":"Buffer","data":[58,35,213,51,110,221,230,247,56,14,6,251,103,174,213,211,9,149,50,16]},"announce":[],"urlList":[]}}